#!OML:ASF I:\golf\golf\golf 2\Subject 1\2002-09-07\Subject1.ASF
:FULLY-SPECIFIED
:DEGREES
183
root -5.94387 17.7931 3.127 2.97961 31.7408 -9.25718
lowerback 1.44975 -9.85696 -15.3226
upperback -1.91265 -13.413 -3.66255
thorax -0.305404 -6.46872 4.32785
lowerneck -5.59295 22.2172 3.19621
upperneck 13.9658 32.2536 -12.4424
head 7.81529 14.6975 -1.12481
rclavicle -1.0138e-013 9.54166e-015
rhumerus 28.7773 -29.1891 -54.1625
rradius 111.077
rwrist -2.27676
rhand -63.0066 25.4896
rfingers 7.12502
rthumb -35.0092 -1.06429
lclavicle -1.0138e-013 9.54166e-015
lhumerus 115.658 -39.2805 43.0731
lradius 41.7823
lwrist -0.172274
lhand -20.0305 -0.41623
lfingers 7.12502
lthumb -173.69 -150.53
rfemur -27.9563 20.1292 25.7375
rtibia 31.0129
rfoot -0.475703 28.3549
rtoes 37.1406
lfemur -0.18867 20.3046 7.21485
ltibia 37.7542
lfoot 12.6644 9.64021
ltoes -35.5036
184
root -5.938 17.7992 3.09975 2.99461 32.0621 -9.31957
lowerback 1.61043 -9.86681 -15.2673
upperback -1.92307 -13.4587 -3.62773
thorax -0.400674 -6.4858 4.36547
lowerneck -5.39503 22.2291 3.27085
upperneck 13.9199 32.263 -12.4957
head 7.7897 14.7164 -1.16822
rclavicle -1.19271e-015 5.40694e-014
rhumerus 28.8622 -29.081 -54.6452
rradius 110.777
rwrist -2.76532
rhand -62.6331 23.8645
rfingers 7.12502
rthumb -34.6548 -2.77152
lclavicle -1.19271e-015 5.40694e-014
lhumerus 115.331 -39.472 43.2377
lradius 41.4646
lwrist -0.0143945
lhand -19.3699 0.0151947
lfingers 7.12502
lthumb -173.052 -150.119
rfemur -27.9936 20.0656 25.6657
rtibia 30.8021
rfoot -0.998903 28.1122
rtoes 35.752
lfemur -0.423542 20.3576 7.11181
ltibia 37.7993
lfoot 11.9389 9.62235
ltoes -35.1977
185
root -5.93258 17.8019 3.07033 3.00545 32.3864 -9.43323
lowerback 1.67747 -9.87161 -15.1889
upperback -1.84403 -13.4683 -3.55672
thorax -0.350332 -6.49953 4.40193
lowerneck -5.48621 22.2706 3.14477
upperneck 13.9509 32.3129 -12.3863
head 7.77971 14.7374 -1.11289
rclavicle 6.75868e-014 -9.54166e-015
rhumerus 29.0401 -28.9732 -55.137
rradius 110.572
rwrist -4.24274
rhand -62.0734 24.8894
rfingers 7.12502
rthumb -34.1234 -1.86684
lclavicle 6.75868e-014 -9.54166e-015
lhumerus 115.134 -39.4493 43.2221
lradius 41.1921
lwrist 0.380165
lhand -18.5892 0.377646
lfingers 7.12502
lthumb -172.298 -149.783
rfemur -28.1132 19.9811 25.6424
rtibia 30.6644
rfoot -1.41196 27.8831
rtoes 34.4459
lfemur -0.653165 20.3711 7.02676
ltibia 37.7974
lfoot 10.9565 9.76938
ltoes -34.2125
186
root -5.93064 17.8004 3.03983 2.96776 32.7309 -9.6453
lowerback 1.68077 -9.833 -15.0449
upperback -1.6849 -13.3982 -3.46551
thorax -0.202035 -6.48539 4.4119
lowerneck -5.52039 22.2203 3.00489
upperneck 13.9079 32.2297 -12.3384
head 7.73415 14.7006 -1.10204
rclavicle -3.26007e-014 1.59028e-014
rhumerus 29.0882 -28.8039 -55.4801
rradius 110.281
rwrist -5.88336
rhand -62.0451 27.4606
rfingers 7.12502
rthumb -34.0965 0.698354
lclavicle -3.26007e-014 1.59028e-014
lhumerus 115.054 -39.5344 43.1801
lradius 40.9002
lwrist 0.357672
lhand -18.1913 0.631703
lfingers 7.12502
lthumb -171.914 -149.543
rfemur -28.2725 19.9684 25.6297
rtibia 30.5739
rfoot -1.2455 27.5396
rtoes 34.5832
lfemur -0.905388 20.5183 7.04419
ltibia 37.7877
lfoot 10.1844 9.37089
ltoes -34.6515
187
root -5.9294 17.8023 3.00578 2.95343 33.1336 -9.82224
lowerback 1.82055 -9.78805 -14.903
upperback -1.57414 -13.3523 -3.3863
thorax -0.179761 -6.47249 4.44157
lowerneck -5.57952 22.1647 2.99178
upperneck 13.9029 32.1654 -12.4107
head 7.74821 14.6621 -1.12081
rclavicle -2.127e-014 4.13472e-014
rhumerus 28.9995 -28.5522 -55.7107
rradius 109.883
rwrist -7.28618
rhand -62.1377 30.0414
rfingers 7.12502
rthumb -34.1845 3.29883
lclavicle -2.127e-014 4.13472e-014
lhumerus 114.957 -39.737 43.2119
lradius 40.5698
lwrist 0.069977
lhand -17.9197 1.02666
lfingers 7.12502
lthumb -171.652 -149.158
rfemur -28.4485 19.8895 25.5674
rtibia 30.4946
rfoot -1.25624 27.2203
rtoes 34.1935
lfemur -1.2455 20.7622 6.99889
ltibia 37.8083
lfoot 9.67665 8.82521
ltoes -36.0062
188
root -5.9276 17.804 2.96767 2.9544 33.5757 -9.97112
lowerback 2.0813 -9.8037 -14.826
upperback -1.59299 -13.4249 -3.26766
thorax -0.319081 -6.50116 4.57107
lowerneck -5.51631 22.1934 3.01394
upperneck 13.9941 32.2251 -12.4242
head 7.77929 14.6871 -1.11943
rclavicle 5.14852e-014 -3.18055e-015
rhumerus 28.9385 -28.1183 -56.0176
rradius 109.489
rwrist -8.33881
rhand -62.1605 31.1221
rfingers 7.12502
rthumb -34.2061 4.38429
lclavicle 5.14852e-014 -3.18055e-015
lhumerus 114.517 -39.9673 43.5097
lradius 40.2026
lwrist 0.279729
lhand -17.1027 1.51632
lfingers 7.12502
lthumb -170.864 -148.702
rfemur -28.6441 19.6756 25.5152
rtibia 30.4253
rfoot -1.63846 27.0268
rtoes 32.8111
lfemur -1.60414 20.9774 6.90475
ltibia 37.812
lfoot 9.01409 9.08703
ltoes -35.5662
189
root -5.9277 17.8044 2.92765 2.8782 34.0643 -10.2456
lowerback 2.32461 -9.84612 -14.7108
upperback -1.57061 -13.5236 -3.06857
thorax -0.388037 -6.55083 4.75236
lowerneck -5.50197 22.2067 2.85834
upperneck 14.0213 32.2542 -12.3984
head 7.76016 14.697 -1.09875
rclavicle -1.66979e-014 1.90833e-014
rhumerus 29.1037 -27.7479 -56.5112
rradius 109.149
rwrist -8.80318
rhand -62.2049 29.0704
rfingers 7.12502
rthumb -34.2483 2.34209
lclavicle -1.66979e-014 1.90833e-014
lhumerus 113.902 -40.1911 43.9433
lradius 39.8753
lwrist 0.57785
lhand -16.1694 2.07316
lfingers 7.12502
lthumb -169.963 -148.186
rfemur -28.8487 19.5703 25.5369
rtibia 30.3532
rfoot -2.03238 26.6756
rtoes 31.4987
lfemur -1.95298 21.1858 6.93226
ltibia 37.7729
lfoot 8.1092 9.48211
ltoes -34.5636
190
root -5.92693 17.8096 2.88845 2.81802 34.6735 -10.4179
lowerback 2.53373 -9.80743 -14.6202
upperback -1.34443 -13.4858 -2.91357
thorax -0.249933 -6.55516 4.88023
lowerneck -6.14795 22.1002 2.44
upperneck 14.2811 32.1628 -12.2097
head 7.84755 14.5972 -0.943574
rclavicle 3.99557e-014 2.8625e-014
rhumerus 29.3786 -27.8034 -56.9506
rradius 108.807
rwrist -9.29257
rhand -62.044 26.7473
rfingers 7.12502
rthumb -34.0955 -0.0151824
lclavicle 3.99557e-014 2.8625e-014
lhumerus 113.825 -40.3042 44.0697
lradius 39.6186
lwrist 0.727394
lhand -15.3279 2.64798
lfingers 7.12502
lthumb -169.152 -147.652
rfemur -28.9952 19.3079 25.4776
rtibia 30.2843
rfoot -2.293 26.3119
rtoes 30.7392
lfemur -2.30053 21.3908 6.84522
ltibia 37.686
lfoot 7.27628 9.40867
ltoes -34.518
191
root -5.92335 17.8149 2.84994 2.79696 35.3508 -10.4426
lowerback 2.75458 -9.72704 -14.5497
upperback -1.11518 -13.3945 -2.86807
thorax -0.147724 -6.52881 4.91441
lowerneck -6.69288 21.9889 2.14421
upperneck 14.5661 32.0543 -11.985
head 7.93864 14.5016 -0.800996
rclavicle -2.92213e-014 -8.5875e-014
rhumerus 29.4484 -27.9511 -57.3258
rradius 108.412
rwrist -9.95144
rhand -61.9106 26.0499
rfingers 7.12502
rthumb -33.9688 -0.740747
lclavicle -2.92213e-014 -8.5875e-014
lhumerus 113.956 -40.4446 44.0141
lradius 39.3383
lwrist 1.01466
lhand -14.3608 3.29411
lfingers 7.12502
lthumb -168.219 -147.057
rfemur -29.0813 18.7676 25.3467
rtibia 30.2578
rfoot -2.5501 26.1126
rtoes 30.075
lfemur -2.59266 21.5243 6.58366
ltibia 37.5341
lfoot 6.46685 9.4859
ltoes -34.1224
192
root -5.92087 17.8181 2.80947 2.78086 36.0073 -10.5667
lowerback 2.95334 -9.72388 -14.4492
upperback -0.988931 -13.411 -2.79276
thorax -0.122963 -6.54664 4.96376
lowerneck -6.72582 21.9917 2.18886
upperneck 14.5631 32.0633 -12.035
head 7.95967 14.5032 -0.810776
rclavicle -2.29596e-014 9.54166e-015
rhumerus 29.5019 -27.8053 -57.8504
rradius 107.995
rwrist -10.6098
rhand -61.8409 25.9313
rfingers 7.12502
rthumb -33.9026 -0.874028
lclavicle -2.29596e-014 9.54166e-015
lhumerus 113.644 -40.6549 44.1224
lradius 39.0688
lwrist 1.25431
lhand -13.4921 3.84962
lfingers 7.12502
lthumb -167.381 -146.552
rfemur -29.2938 18.3447 25.2523
rtibia 30.2967
rfoot -2.60184 25.7938
rtoes 29.7392
lfemur -2.9235 21.6516 6.36497
ltibia 37.316
lfoot 5.70432 9.62446
ltoes -34.303
193
root -5.9183 17.8274 2.76668 2.87438 36.6624 -10.6528
lowerback 3.07146 -9.80015 -14.4319
upperback -0.890446 -13.5223 -2.66474
thorax -0.0345787 -6.61386 5.08556
lowerneck -6.65257 22.025 2.26464
upperneck 14.5274 32.1202 -12.168
head 7.97589 14.5295 -0.850983
rclavicle 9.23355e-014 5.08889e-014
rhumerus 29.6867 -27.4101 -58.4532
rradius 107.562
rwrist -11.3772
rhand -61.6946 25.5298
rfingers 7.12502
rthumb -33.7635 -1.30612
lclavicle 9.23355e-014 5.08889e-014
lhumerus 113.204 -40.687 44.1877
lradius 38.7766
lwrist 1.44259
lhand -12.927 4.31666
lfingers 7.12502
lthumb -166.836 -146.119
rfemur -29.6457 18.0166 25.0405
rtibia 30.4137
rfoot -2.84722 25.4062
rtoes 29.1699
lfemur -3.34383 21.8952 6.07123
ltibia 37.0537
lfoot 5.05566 9.58714
ltoes -35.3747
194
root -5.91533 17.8397 2.72042 2.99265 37.3314 -10.6627
lowerback 3.20092 -9.81101 -14.4419
upperback -0.794195 -13.55 -2.5897
thorax 0.022704 -6.63659 5.17664
lowerneck -6.49652 21.9687 2.40118
upperneck 14.5448 32.0502 -12.2759
head 7.99157 14.5027 -0.914399
rclavicle 2.87244e-014 6.36111e-015
rhumerus 29.6733 -27.165 -58.9777
rradius 107.161
rwrist -12.119
rhand -61.4998 24.5272
rfingers 7.12502
rthumb -33.5785 -2.34916
lclavicle 2.87244e-014 6.36111e-015
lhumerus 112.95 -40.8197 44.144
lradius 38.4125
lwrist 1.68116
lhand -12.4318 4.71355
lfingers 7.12502
lthumb -166.359 -145.753
rfemur -29.9582 17.6391 24.7617
rtibia 30.5627
rfoot -3.97568 25.1372
rtoes 26.3741
lfemur -3.73003 22.1914 5.71368
ltibia 36.7762
lfoot 4.11573 9.89348
ltoes -34.8156
195
root -5.91586 17.847 2.67069 2.94925 38.0408 -10.8398
lowerback 3.42805 -9.73438 -14.3302
upperback -0.667611 -13.4736 -2.51698
thorax 0.0113262 -6.60628 5.2311
lowerneck -6.4138 21.8512 2.66241
upperneck 14.5996 31.9064 -12.436
head 8.05444 14.4349 -0.999167
rclavicle 9.39258e-014 5.08889e-014
rhumerus 29.469 -27.1365 -59.3919
rradius 106.78
rwrist -12.7573
rhand -61.3157 23.4532
rfingers 7.12502
rthumb -33.4035 -3.46099
lclavicle 9.39258e-014 5.08889e-014
lhumerus 112.706 -41.2259 44.2031
lradius 38.0588
lwrist 1.82289
lhand -11.8617 5.02296
lfingers 7.12502
lthumb -165.81 -145.482
rfemur -30.1421 17.2051 24.6926
rtibia 30.6321
rfoot -5.56957 24.762
rtoes 21.2936
lfemur -4.08854 22.4465 5.53364
ltibia 36.5178
lfoot 2.9938 10.2997
ltoes -33.279
